<?xml version="1.0" standalone="no"?>
<!DOCTYPE svg PUBLIC "-//W3C//DTD SVG 20010904//EN" "http://www.w3.org/TR/2001/REC-SVG-20010904/DTD/svg10.dtd">
<svg xmlns="http://www.w3.org/2000/svg" version="1.0" width="1024.000000pt" height="1024.000000pt" viewBox="0 0 1024.000000 1024.000000" preserveAspectRatio="xMidYMid meet">
<metadata>
Created by potrace 1.16, written by Peter Selinger 2001-2019
<meta name="Producer" content="Online-Convert"/></metadata>
<g transform="translate(0.000000,1024.000000) scale(0.100000,-0.100000)" fill="#000000" stroke="none">
<path d="M1275 8575 c-65 -32 -60 113 -62 -1830 -2 -1292 0 -1778 8 -1798 7 -15 23 -37 37 -47 24 -20 47 -20 1346 -20 l1321 1 35 109 36 110 -1283 0 -1283 0 0 1630 0 1630 1680 0 1680 0 0 -580 c0 -319 1 -580 3 -580 2 0 49 22 104 50 73 36 102 56 107 72 3 13 6 281 6 596 0 637 1 625 -65 656 -30 14 -215 16 -1837 16 -1576 0 -1807 -2 -1833 -15z"/>
<path d="M6420 7767 c-361 -163 -1734 -829 -1763 -855 -42 -38 -42 -37 -42 -619 0 -310 0 -563 0 -563 0 0 45 16 100 35 l100 35 3 430 c1 236 4 430 6 430 6 0 207 -91 386 -175 91 -42 282 -130 425 -195 143 -66 377 -172 519 -237 l259 -119 3 -390 c4 -398 8 -465 43 -659 24 -131 27 -354 7 -460 -17 -83 -18 -80 80 -145 l72 -47 7 791 c4 435 5 820 2 854 l-5 64 147 70 c198 95 1146 525 1397 634 13 6 18 -801 8 -1369 l-7 -357 -53 -30 c-29 -17 -214 -108 -411 -203 -458 -221 -1002 -491 -1003 -497 0 -3 45 -33 99 -67 l100 -62 228 111 c125 62 451 218 723 348 420 201 498 242 517 269 l22 33 1 1014 c0 901 -1 1018 -15 1045 -14 25 -70 57 -388 214 -205 101 -505 245 -667 321 -162 75 -367 170 -455 211 -334 155 -380 170 -445 140z m391 -352 c255 -114 747 -344 1021 -477 l227 -111 -272 -117 c-336 -144 -620 -274 -972 -442 -148 -72 -281 -135 -295 -140 -22 -9 -47 1 -195 74 -225 113 -510 245 -960 445 -203 91 -374 168 -379 171 -5 3 71 46 170 95 287 144 1141 561 1239 604 l89 40 71 -29 c38 -17 154 -68 256 -113z"/>
<path d="M5010 5665 c-226 -45 -433 -158 -592 -323 -121 -126 -199 -254 -254 -416 -71 -206 -72 -486 -3 -696 83 -257 272 -484 509 -613 68 -38 262 -107 299 -107 25 0 25 0 5 116 l-17 91 -76 31 c-119 49 -199 101 -282 182 -224 221 -320 510 -261 790 41 197 112 336 241 472 180 190 388 279 647 279 183 1 344 -49 495 -152 188 -127 339 -339 383 -536 9 -40 16 -112 16 -161 l0 -88 33 -17 c17 -10 53 -32 80 -49 26 -17 50 -28 53 -25 13 12 23 94 24 183 1 264 -118 535 -324 740 -161 159 -346 257 -569 299 -96 18 -315 18 -407 0z"/>
<path d="M5134 4910 c-12 -4 -31 -21 -43 -36 -26 -33 -27 -80 -6 -354 8 -107 28 -400 45 -650 27 -414 66 -966 105 -1513 8 -114 15 -231 16 -260 0 -73 18 -117 58 -144 41 -28 76 -29 116 -4 17 10 152 156 300 325 147 168 271 306 275 306 6 0 95 -142 465 -738 113 -183 141 -212 203 -212 39 0 61 11 384 187 137 74 257 146 268 160 25 32 26 92 3 136 -17 35 -404 657 -496 799 l-57 87 33 6 c78 13 300 47 517 79 316 48 335 52 360 83 26 34 26 92 -1 127 -11 14 -42 38 -67 53 -26 15 -175 113 -332 219 -503 338 -1974 1299 -2057 1342 -25 14 -59 14 -89 2z m314 -391 c340 -220 915 -595 1257 -823 198 -132 411 -272 473 -312 112 -72 113 -73 80 -78 -18 -4 -141 -22 -273 -41 -436 -65 -434 -64 -461 -117 -34 -65 -26 -81 281 -582 260 -426 286 -471 270 -482 -33 -24 -353 -204 -363 -204 -5 0 -33 39 -63 88 -324 531 -526 853 -555 880 -42 40 -95 44 -142 10 -17 -13 -106 -111 -198 -218 -92 -107 -186 -215 -208 -240 -23 -25 -54 -60 -69 -79 -15 -18 -30 -32 -32 -30 -2 3 -13 141 -24 309 -12 168 -32 463 -46 655 -14 193 -38 548 -55 790 -16 242 -32 470 -35 508 -3 37 -3 67 0 67 3 0 76 -46 163 -101z"/>
</g>
</svg>
