<?xml version="1.0" standalone="no"?>
<!DOCTYPE svg PUBLIC "-//W3C//DTD SVG 20010904//EN" "http://www.w3.org/TR/2001/REC-SVG-20010904/DTD/svg10.dtd">
<svg xmlns="http://www.w3.org/2000/svg" version="1.0" width="1024.000000pt" height="1024.000000pt" viewBox="0 0 1024.000000 1024.000000" preserveAspectRatio="xMidYMid meet">
<metadata>
Created by potrace 1.16, written by Peter Selinger 2001-2019
<meta name="Producer" content="Online-Convert"/></metadata>
<g transform="translate(0.000000,1024.000000) scale(0.100000,-0.100000)" fill="#000000" stroke="none">
<path d="M4902 7224 c-107 -19 -193 -50 -313 -111 -127 -64 -218 -130 -317 -231 -113 -116 -234 -310 -272 -438 l-12 -41 -237 -7 c-245 -7 -1496 -6 -1612 1 l-66 5 -9 239 c-9 226 -10 240 -31 260 -34 34 -98 30 -159 -9 -27 -17 -78 -48 -114 -68 -486 -277 -1139 -668 -1167 -700 -31 -34 -30 -79 2 -108 14 -13 58 -41 98 -62 40 -20 126 -69 192 -107 66 -38 257 -148 425 -245 168 -96 350 -203 405 -237 234 -143 274 -157 320 -111 32 32 38 82 34 306 l-4 190 335 0 c184 0 614 3 955 7 l620 6 24 -74 c48 -151 132 -287 259 -421 107 -111 210 -190 338 -256 125 -64 240 -98 407 -119 l130 -17 -4 -772 -4 -772 21 -29 c12 -15 29 -30 38 -31 46 -9 72 9 290 197 130 112 249 202 258 193 9 -10 228 -479 318 -682 78 -176 96 -205 147 -226 70 -30 148 -8 395 110 144 69 188 114 188 189 0 45 -84 240 -309 715 -50 106 -91 197 -91 202 0 6 134 10 364 10 352 0 364 1 390 21 19 15 26 30 26 54 0 30 -47 79 -592 623 l-592 590 51 56 c62 68 141 202 184 310 17 45 35 91 40 104 l9 22 332 0 c183 0 613 -3 956 -7 l622 -6 0 -219 c0 -242 7 -282 54 -294 40 -10 59 -2 256 112 102 58 250 143 330 187 80 44 267 151 415 237 149 86 296 171 328 189 90 51 117 78 117 115 0 22 -8 40 -27 58 -26 24 -393 241 -1042 616 -325 188 -348 196 -402 143 l-31 -32 3 -229 4 -230 -966 0 -965 0 -23 73 c-32 100 -99 226 -174 328 -157 210 -434 375 -716 424 -103 18 -328 18 -429 -1z m406 -169 c417 -79 712 -368 797 -781 22 -105 22 -294 1 -407 -33 -176 -115 -344 -213 -439 l-39 -38 -218 226 -219 225 26 27 c66 71 84 182 48 300 -27 88 -71 154 -143 212 -204 164 -479 92 -595 -156 -24 -50 -28 -72 -28 -144 0 -94 23 -161 73 -213 24 -26 72 -57 87 -57 3 0 5 67 3 149 -2 148 -2 150 28 208 24 46 40 65 84 91 50 30 61 33 121 30 54 -3 75 -9 109 -33 53 -37 95 -109 110 -191 10 -54 7 -124 -6 -124 -2 0 -27 18 -56 40 -61 46 -104 52 -134 19 -18 -20 -19 -45 -22 -486 l-3 -465 -67 7 c-245 26 -511 158 -676 335 -213 231 -308 553 -247 845 88 427 394 737 807 819 94 19 275 19 372 1z m-3416 -551 c-4 -206 1 -239 39 -263 17 -10 218 -12 1018 -11 l998 1 -1 -155 -1 -156 -997 -2 -998 -3 -27 -28 -28 -27 -5 -196 -5 -195 -170 97 c-192 108 -469 269 -718 416 -159 94 -168 101 -145 112 51 27 301 173 433 254 77 48 246 146 375 219 129 73 235 133 235 133 0 0 -1 -88 -3 -196z m6933 -84 c514 -292 585 -333 585 -339 0 -3 -42 -28 -92 -56 -51 -27 -175 -99 -277 -159 -505 -295 -679 -391 -689 -382 -3 4 -8 88 -10 189 -2 100 -8 190 -13 200 -26 48 12 46 -1045 48 l-991 1 0 137 c0 75 -3 147 -7 160 l-8 24 1010 -6 1010 -5 24 25 c23 24 23 28 21 221 -1 108 0 199 3 203 2 4 37 -11 77 -33 39 -23 221 -125 402 -228z m-1985 -2262 c0 -5 -142 -8 -315 -8 l-316 0 -24 -25 c-39 -38 -33 -85 26 -206 68 -139 389 -838 389 -848 0 -18 -243 -139 -310 -155 -23 -6 -27 -1 -59 76 -19 46 -78 175 -131 288 -54 113 -133 282 -175 375 -90 200 -96 210 -135 230 -26 13 -34 14 -62 2 -34 -14 -217 -160 -349 -279 -42 -37 -79 -68 -83 -68 -3 0 -6 492 -6 1092 l0 1093 775 -780 c426 -429 774 -783 775 -787z"/>
</g>
</svg>
